<svg width="45" height="40" viewBox="0 0 45 40" fill="none" xmlns="http://www.w3.org/2000/svg">
<path d="M28.8328 8.01406H32.9016L24.5016 32H20.3672L12 8.01406H16.0359L21.0398 22.9273C21.3023 23.6383 21.5812 24.557 21.8766 25.6836C22.1719 26.7992 22.3633 27.6305 22.4508 28.1773C22.593 27.3461 22.8117 26.3836 23.107 25.2898C23.4023 24.1961 23.643 23.3867 23.8289 22.8617L28.8328 8.01406Z" fill="#FF6150"/>
<path d="M28.8328 8.01406V0.0485473H23.1116L21.2844 5.47014L28.8328 8.01406ZM32.9016 8.01406L40.4194 10.6468L44.131 0.0485473H32.9016V8.01406ZM24.5016 32V39.9655H30.1518L32.0194 34.6328L24.5016 32ZM20.3672 32L12.8461 34.6236L14.7096 39.9655H20.3672V32ZM12 8.01406V0.0485473H0.785074L4.47896 10.6377L12 8.01406ZM16.0359 8.01406L23.5877 5.4802L21.7652 0.0485473H16.0359V8.01406ZM21.0398 22.9273L13.4881 25.4612L13.5261 25.5744L13.5674 25.6864L21.0398 22.9273ZM21.8766 25.6836L14.1714 27.7034L14.1738 27.7127L14.1763 27.7219L21.8766 25.6836ZM22.4508 28.1773L14.5853 29.4358L30.3023 29.5204L22.4508 28.1773ZM23.8289 22.8617L31.3374 25.521L31.3578 25.4635L31.3773 25.4056L23.8289 22.8617ZM28.8328 15.9796H32.9016V0.0485473H28.8328V15.9796ZM25.3837 5.38128L16.9837 29.3672L32.0194 34.6328L40.4194 10.6468L25.3837 5.38128ZM24.5016 24.0345H20.3672V39.9655H24.5016V24.0345ZM27.8882 29.3764L19.521 5.39044L4.47896 10.6377L12.8461 34.6236L27.8882 29.3764ZM12 15.9796H16.0359V0.0485473H12V15.9796ZM8.48418 10.5479L13.4881 25.4612L28.5916 20.3935L23.5877 5.4802L8.48418 10.5479ZM13.5674 25.6864C13.7064 26.0629 13.9109 26.7097 14.1714 27.7034L29.5817 23.6638C29.2516 22.4044 28.8982 21.2136 28.5123 20.1683L13.5674 25.6864ZM14.1763 27.7219C14.4599 28.7933 14.5642 29.3039 14.5853 29.4358L30.3163 26.9189C30.1624 25.9571 29.8839 24.8052 29.5769 23.6453L14.1763 27.7219ZM30.3023 29.5204C30.3907 29.0031 30.5466 28.2943 30.7972 27.3662L15.4169 23.2135C15.0769 24.4729 14.7952 25.6891 14.5993 26.8343L30.3023 29.5204ZM30.7972 27.3662C31.0818 26.312 31.2579 25.7454 31.3374 25.521L16.3204 20.2025C16.028 21.028 15.7229 22.0802 15.4169 23.2135L30.7972 27.3662ZM31.3773 25.4056L36.3812 10.558L21.2844 5.47014L16.2805 20.3178L31.3773 25.4056Z" fill="#FF6150"/>
</svg>
